<svg version="1.1" xmlns="http://www.w3.org/2000/svg" xmlns:xlink="http://www.w3.org/1999/xlink" width="500" height="500"><g data-paper-data="{&quot;description&quot;:&quot;Logo for LuvWhisky\n==================\n\nThis logo was generated by MarkMaker at http://emblemmatic.org/markmaker/ and may be composed of elements designed by others.\n\nThe font is Oleo Script Swash Caps designed by soytutype fonts and released under the OFL license via Google Fonts: https://www.google.com/fonts/specimen/Oleo%20Script%20Swash%20Caps. The font includes this copyright statement: Copyright (c) 2012, Soytutype (contact@soytutype.com.ar|soytutype@gmail.com), with reserved fontname 'Oleo'\n\nMarkMaker uses semantic data from the Princeton University WordNet database http://wordnet.princeton.edu and font descriptions from Google Fonts https://www.google.com/fonts.&quot;}" fill="#385757" fill-rule="nonzero" stroke="none" stroke-width="1" stroke-linecap="butt" stroke-linejoin="miter" stroke-miterlimit="10" stroke-dasharray="" stroke-dashoffset="0" font-family="none" font-weight="none" font-size="none" text-anchor="none" style="mix-blend-mode: normal"><g data-paper-data="{&quot;elementType&quot;:&quot;logo&quot;}"><g data-paper-data="{&quot;elementType&quot;:&quot;text&quot;}"><g data-paper-data="{&quot;baseline&quot;:80.4,&quot;elementType&quot;:&quot;row&quot;}"><g data-paper-data="{&quot;baselineProportion&quot;:0.7821011673151751,&quot;fontSize&quot;:100,&quot;baseline&quot;:80.4,&quot;elementType&quot;:&quot;word&quot;}"><path d="M97.94007,277.28169c-0.78849,1.68211 -2.03693,3.21966 -3.74532,4.61266c-1.70839,1.393 -3.53505,2.08949 -5.47999,2.08949c-1.94494,0 -3.85045,-0.5388 -5.71654,-1.6164c-1.86609,-1.0776 -3.37736,-2.16834 -4.53381,-3.27223c-1.15645,-1.10388 -2.79913,-2.81227 -4.92805,-5.12517c-2.12892,-2.3129 -3.58762,-3.86359 -4.37611,-4.65208c-2.78599,2.99625 -6.17649,4.49438 -10.1715,4.49438c-2.62829,0 -4.78349,-0.65707 -6.4656,-1.97122c-1.68211,-1.31415 -2.52316,-3.06196 -2.52316,-5.24345c0,-2.18148 0.90676,-4.04757 2.72028,-5.59827c1.81352,-1.55069 4.24469,-2.32604 7.29351,-2.32604c1.73467,0 3.46935,0.28911 5.20402,0.86734c0.52566,-2.57573 0.94619,-6.22906 1.26158,-10.95998c-3.20652,-0.57822 -5.82167,-1.9318 -7.84546,-4.06071c-2.02379,-2.12892 -3.03568,-5.08575 -3.03568,-8.87049c0,-1.47184 0.23655,-3.33793 0.70964,-5.59827c0.57822,-0.10513 1.34043,-0.1577 2.28662,-0.1577c0.94619,0 1.91865,0.36796 2.91741,1.10388c-0.68336,1.26158 -1.02503,2.94369 -1.02503,5.04632c0,4.25784 2.07635,6.88613 6.22906,7.88488c0.21026,-5.72968 0.52566,-9.76411 0.94619,-12.10329c0.42053,-2.33918 1.15645,-4.57323 2.20777,-6.70215c1.05132,-2.12892 2.79913,-4.03443 5.24345,-5.71654c2.44431,-1.68211 5.55884,-2.52316 9.34358,-2.52316c3.78474,0 6.71529,1.11702 8.79164,3.35107c2.07635,2.23405 3.11453,4.87548 3.11453,7.92431c0,4.25784 -1.95808,8.5551 -5.87424,12.89178c-3.91616,4.33668 -8.76536,6.97812 -14.5476,7.92431c-1.62954,7.09639 -2.81227,11.90617 -3.5482,14.42933c0.84105,0.63079 2.37861,1.81352 4.61266,3.5482c2.23405,1.73467 3.94244,3.0094 5.12517,3.82417c1.18273,0.81477 2.78599,1.62954 4.80978,2.44431c2.02379,0.81477 3.98186,1.22216 5.87424,1.22216l3.31165,-0.23655c0.89362,1.26158 1.49813,2.28662 1.81352,3.0751M91.08023,228.86852c0,-1.57698 -0.40739,-2.86484 -1.22216,-3.86359c-0.81477,-0.99875 -1.90551,-1.49813 -3.27223,-1.49813c-3.52191,0 -6.09764,3.83731 -7.72718,11.51193c-0.89362,4.20527 -1.52441,7.25409 -1.89237,9.14646c3.88987,-0.68336 7.21467,-2.61515 9.97437,-5.79539c2.75971,-3.18024 4.13956,-6.34733 4.13956,-9.50128M58.27912,267.89868c1.83981,0 3.46935,-0.99875 4.88863,-2.99625c-1.52441,-0.94619 -3.04882,-1.41928 -4.57323,-1.41928c-2.26033,0 -3.3905,0.73592 -3.3905,2.20777c0,0.73592 0.3154,1.28786 0.94619,1.65582c0.63079,0.36796 1.34043,0.55194 2.12892,0.55194z" data-paper-data="{&quot;elementType&quot;:&quot;letter&quot;,&quot;baseline&quot;:71,&quot;baselineProportion&quot;:0.8343125734430082,&quot;fontSize&quot;:100}"></path><path d="M101.56712,266.91307c0,0 0,-0.55851 0,-1.67554c0,-1.11702 0.68336,-4.39582 2.05007,-9.83639c1.36671,-5.44057 2.05007,-8.7785 2.05007,-10.0138c0,-1.2353 -0.94619,-2.87798 -2.83856,-4.92805l0.07885,-1.02503c3.57448,-0.73592 8.27912,-1.10388 14.11394,-1.10388c0.26283,0.68336 0.39424,1.91865 0.39424,3.70589c0,1.78724 -0.73592,5.59827 -2.20777,11.43308c-1.47184,5.83481 -2.20777,9.46186 -2.20777,10.88114c0,1.41928 0.52566,2.12892 1.57698,2.12892c1.52441,0 3.28537,-0.55194 5.28287,-1.65582c0.21026,-1.26158 0.73592,-3.67961 1.57698,-7.25409c1.89237,-8.41054 2.83856,-14.42933 2.83856,-18.05638c1.83981,-0.73592 5.15146,-1.10388 9.93495,-1.10388h1.49813c0,2.4706 -0.73592,7.29351 -2.20777,14.46876c-1.47184,7.17524 -2.20777,11.38051 -2.20777,12.61581c0,1.2353 0.26283,1.85295 0.78849,1.85295c0.3154,0 1.81352,-0.63079 4.49438,-1.89237l1.49813,2.52316c-4.67836,3.88987 -8.7785,5.83481 -12.30041,5.83481c-1.68211,0 -3.11453,-0.47309 -4.29726,-1.41928c-1.18273,-0.94619 -1.85295,-2.18148 -2.01064,-3.70589c-4.25784,3.46935 -8.12143,5.20402 -11.59077,5.20402c-1.83981,0 -3.35107,-0.60451 -4.53381,-1.81352c-1.18273,-1.20902 -1.7741,-2.93055 -1.7741,-5.1646z" data-paper-data="{&quot;elementType&quot;:&quot;letter&quot;,&quot;baseline&quot;:43.800000000000004,&quot;baselineProportion&quot;:0.9711751662971175,&quot;fontSize&quot;:100}"></path><path d="M153.56791,237.93613c0,0 0.57165,0 1.71496,0c1.14331,0 2.28004,0.47309 3.41021,1.41928c1.13017,0.94619 1.69525,2.89112 1.69525,5.83481c0,1.57698 -0.47309,4.79664 -1.41928,9.65898c-0.94619,4.86234 -1.41928,7.81917 -1.41928,8.87049c0,2.10263 0.42053,3.15395 1.26158,3.15395c1.9975,0 4.19213,-1.48499 6.58388,-4.45496c2.39175,-2.96997 3.64019,-5.45371 3.74532,-7.45121l-5.36172,-5.99251c0.21026,-2.26033 0.76221,-4.3104 1.65582,-6.15021c0.89362,-1.83981 1.73467,-3.12767 2.52316,-3.86359l1.10388,-1.02503c2.26033,0 3.96872,0.60451 5.12517,1.81352c1.15645,1.20902 1.73467,2.62829 1.73467,4.25784c0,4.1527 -1.02503,8.54195 -3.0751,13.16775c-2.05007,4.6258 -4.78349,8.5551 -8.20028,11.7879c-3.41678,3.2328 -6.88613,4.8492 -10.40804,4.8492c-2.20777,0 -3.90302,-0.68336 -5.08575,-2.05007c-1.18273,-1.36671 -1.7741,-3.16709 -1.7741,-5.40114c0,-2.23405 0.17084,-5.24345 0.51252,-9.02819c0.34168,-3.78474 0.51252,-7.5432 0.51252,-11.27538c0,-0.84105 -0.30225,-1.83981 -0.90676,-2.99625c-0.60451,-1.15645 -1.22216,-2.07635 -1.85295,-2.75971l0.23655,-0.94619c2.83856,-0.94619 5.40114,-1.41928 7.68776,-1.41928z" data-paper-data="{&quot;elementType&quot;:&quot;letter&quot;,&quot;baseline&quot;:44.300000000000004,&quot;baselineProportion&quot;:0.9736263736263736,&quot;fontSize&quot;:100}"></path><path d="M196.73763,263.16775l0.47309,-13.4043c-5.04632,-0.63079 -9.27788,-2.33918 -12.69466,-5.12517c-3.41678,-2.78599 -5.12517,-6.51817 -5.12517,-11.19653c0,-3.83731 1.89237,-7.55634 5.67711,-11.15711c3.78474,-3.60076 8.30541,-5.40114 13.56199,-5.40114c7.72718,0 11.59077,5.02004 11.59077,15.06012c0,2.94369 -0.19712,7.45121 -0.59137,13.52257c-0.39424,6.07136 -0.59137,10.65773 -0.59137,13.75912c0,3.10139 0.84105,4.65208 2.52316,4.65208c0.99875,0 2.45745,-0.8542 4.37611,-2.56259c1.91865,-1.70839 3.53505,-3.56134 4.8492,-5.55884c1.15645,-11.87989 1.73467,-18.97628 1.73467,-21.28918c0,-2.3129 -0.01314,-3.88987 -0.03942,-4.73093c-0.02628,-0.84105 -0.07885,-1.65582 -0.1577,-2.44431c-0.07885,-0.78849 -0.13141,-1.37985 -0.1577,-1.7741c-0.02628,-0.39424 -0.13141,-0.93304 -0.3154,-1.6164c-0.18398,-0.68336 -0.28911,-1.0776 -0.3154,-1.18273c-0.02628,-0.10513 -0.1577,-0.55194 -0.39424,-1.34043c-0.23655,-0.78849 -0.35482,-1.20902 -0.35482,-1.26158c2.68086,-1.41928 7.07011,-2.49688 13.16775,-3.2328v0.07885c0.57822,1.83981 0.86734,4.48124 0.86734,7.92431c0,3.44306 -0.52566,9.42243 -1.57698,17.9381c-1.05132,8.51567 -1.57698,14.15336 -1.57698,16.91307c0,2.75971 0.80163,4.13956 2.40489,4.13956c1.60326,0 3.5482,-1.41928 5.83481,-4.25784c2.28662,-2.83856 4.38925,-6.54445 6.3079,-11.11768c1.91865,-4.57323 3.11453,-9.01505 3.58762,-13.32545c0,-4.25784 -2.23405,-9.17274 -6.70215,-14.74473c1.05132,-2.26033 2.41803,-4.29726 4.10014,-6.11078c1.68211,-1.81352 3.10139,-3.06196 4.25784,-3.74532l1.73467,-1.10388c1.94494,0 3.6139,1.37985 5.0069,4.13956c1.393,2.75971 2.08949,5.99251 2.08949,9.6984c0,3.70589 -0.99875,8.46311 -2.99625,14.27163c-1.9975,5.80853 -4.50752,11.39365 -7.53006,16.75537c-3.02254,5.36172 -6.57073,9.94809 -10.64459,13.75912c-4.07386,3.81103 -7.95059,5.71654 -11.6302,5.71654c-1.89237,0 -3.5482,-0.94619 -4.96747,-2.83856c-1.41928,-1.89237 -2.1552,-4.3104 -2.20777,-7.25409c-2.26033,3.15395 -4.65208,5.62455 -7.17524,7.41179c-2.52316,1.78724 -5.04632,2.68086 -7.56949,2.68086c-2.52316,0 -4.6258,-1.02503 -6.3079,-3.0751c-1.68211,-2.05007 -2.52316,-4.57323 -2.52316,-7.56949M197.92036,232.10132c0,0 0,-0.81477 0,-2.44431c0,-1.62954 -0.30225,-3.03568 -0.90676,-4.21841c-0.60451,-1.18273 -1.76096,-1.7741 -3.46935,-1.7741c-1.70839,0 -3.67961,0.94619 -5.91366,2.83856c-2.23405,1.89237 -3.35107,4.36297 -3.35107,7.41179c0,3.04882 1.32729,5.57198 3.98186,7.56949c2.65458,1.9975 5.74282,2.99625 9.26473,2.99625c0.26283,-4.99376 0.39424,-9.12018 0.39424,-12.37926z" data-paper-data="{&quot;elementType&quot;:&quot;letter&quot;,&quot;baseline&quot;:80.4,&quot;baselineProportion&quot;:0.9852941176470588,&quot;fontSize&quot;:100}"></path><path d="M273.93061,220.82594c0,-1.73467 -0.1577,-2.96997 -0.47309,-3.70589c4.10014,-1.41928 7.96373,-2.12892 11.59077,-2.12892c0.47309,0.47309 0.70964,1.68211 0.70964,3.62705c0,3.46935 -1.47184,11.45936 -4.41553,23.97004c4.25784,-3.10139 7.99001,-4.65208 11.19653,-4.65208c1.9975,0 3.50877,0.63079 4.53381,1.89237c1.02503,1.26158 1.53755,2.93055 1.53755,5.0069c0,2.07635 -0.60451,5.46685 -1.81352,10.1715c-1.20902,4.70465 -1.81352,7.92431 -1.81352,9.65898c0,1.73467 0.21026,2.60201 0.63079,2.60201c0.42053,0 1.52441,-0.47309 3.31165,-1.41928l0.94619,-0.47309l1.41928,2.75971c-0.47309,0.42053 -1.10388,0.94619 -1.89237,1.57698c-0.78849,0.63079 -2.23405,1.47184 -4.33668,2.52316c-2.10263,1.05132 -4.03443,1.57698 -5.79539,1.57698c-1.76096,0 -3.16709,-0.56508 -4.21841,-1.69525c-1.05132,-1.13017 -1.57698,-2.65458 -1.57698,-4.57323c0,-1.91865 0.59137,-5.41428 1.7741,-10.48689c1.18273,-5.07261 1.7741,-8.27912 1.7741,-9.61955c0,-1.34043 -0.55194,-2.01064 -1.65582,-2.01064c-1.36671,0 -3.0751,0.57822 -5.12517,1.73467c-2.89112,12.72094 -4.33668,20.97378 -4.33668,24.75853c-2.20777,0.84105 -5.96623,1.26158 -11.27538,1.26158c-0.05257,-0.89362 -0.07885,-1.68211 -0.07885,-2.36546c0,-2.26033 1.56383,-9.98752 4.6915,-23.18155c3.12767,-13.19403 4.6915,-22.13023 4.6915,-26.80859z" data-paper-data="{&quot;elementType&quot;:&quot;letter&quot;,&quot;baseline&quot;:73.4,&quot;baselineProportion&quot;:0.9839142091152815,&quot;fontSize&quot;:100}"></path><path d="M325.73428,242.82476c0,0 0,0.55194 0,1.65582c0,1.10388 -0.70964,4.34983 -2.12892,9.73783c-1.41928,5.388 -2.12892,8.90992 -2.12892,10.56574c0,1.65582 0.23655,2.48374 0.70964,2.48374c0.3154,0 1.52441,-0.49938 3.62705,-1.49813l0.94619,-0.47309l1.34043,2.75971c-0.47309,0.42053 -1.10388,0.94619 -1.89237,1.57698c-0.78849,0.63079 -2.26033,1.48499 -4.41553,2.56259c-2.1552,1.0776 -4.1527,1.6164 -5.99251,1.6164c-1.83981,0 -3.28537,-0.56508 -4.33668,-1.69525c-1.05132,-1.13017 -1.57698,-2.65458 -1.57698,-4.57323c0,-1.91865 0.65707,-5.33544 1.97122,-10.25034c1.31415,-4.91491 1.97122,-8.10829 1.97122,-9.58013c0,-2.20777 -0.68336,-4.28412 -2.05007,-6.22906l-0.70964,-0.94619l0.07885,-1.02503c2.78599,-0.78849 7.30666,-1.18273 13.56199,-1.18273c0.68336,0.78849 1.02503,2.28662 1.02503,4.49438M316.74552,229.69643c0,0 -0.26283,-0.25626 -0.78849,-0.76878c-0.52566,-0.51252 -0.78849,-1.63611 -0.78849,-3.37079c0,-1.73467 0.72278,-3.25908 2.16834,-4.57323c1.44556,-1.31415 3.11453,-1.97122 5.0069,-1.97122c1.89237,0 3.36422,0.52566 4.41553,1.57698c1.05132,1.05132 1.57698,2.43117 1.57698,4.13956c0,1.70839 -0.74906,3.21966 -2.24719,4.53381c-1.49813,1.31415 -3.16709,1.97122 -5.0069,1.97122c-1.83981,0 -3.28537,-0.51252 -4.33668,-1.53755z" data-paper-data="{&quot;elementType&quot;:&quot;letter&quot;,&quot;baseline&quot;:68.3,&quot;baselineProportion&quot;:0.9827338129496402,&quot;fontSize&quot;:100}"></path><path d="M360.822,262.53696c0,3.31165 -1.4587,6.01879 -4.37611,8.12143c-2.91741,2.10263 -6.2422,3.15395 -9.97437,3.15395c-3.73218,0 -6.68901,-0.78849 -8.87049,-2.36546c-2.18148,-1.57698 -3.27223,-2.96997 -3.27223,-4.17899c0,-0.73592 0.9199,-1.9318 2.75971,-3.58762c1.83981,-1.65582 3.3905,-2.66772 4.65208,-3.03568c2.62829,1.94494 4.78349,5.02004 6.4656,9.22531c1.94494,-0.1577 2.91741,-1.0776 2.91741,-2.75971c0,-2.41803 -2.12892,-5.84795 -6.38675,-10.28977c-4.25784,-4.44182 -6.38675,-7.97687 -6.38675,-10.60516c0,-2.62829 1.18273,-4.66522 3.5482,-6.11078c2.36546,-1.44556 5.21716,-2.16834 8.5551,-2.16834c3.33793,0 5.84795,0.59137 7.53006,1.7741c1.68211,1.18273 2.52316,2.78599 2.52316,4.80978c0,2.02379 -1.60326,4.82292 -4.80978,8.3974c0.36796,0.36796 0.84105,0.8542 1.41928,1.4587c0.57822,0.60451 1.34043,1.74782 2.28662,3.42992c0.94619,1.68211 1.41928,3.25908 1.41928,4.73093M353.25251,250.1577c2.20777,-1.89237 3.31165,-3.75846 3.31165,-5.59827c0,-1.83981 -1.26158,-2.75971 -3.78474,-2.75971c-1.20902,0 -2.20777,0.24969 -2.99625,0.74906c-0.78849,0.49938 -1.18273,1.06446 -1.18273,1.69525c0,1.15645 1.15645,2.78599 3.46935,4.88863z" data-paper-data="{&quot;elementType&quot;:&quot;letter&quot;,&quot;baseline&quot;:44.300000000000004,&quot;baselineProportion&quot;:0.9736263736263736,&quot;fontSize&quot;:100}"></path><path d="M378.95722,220.82594c0,-1.73467 -0.1577,-2.96997 -0.47309,-3.70589c4.10014,-1.41928 7.96373,-2.12892 11.59077,-2.12892c0.47309,0.47309 0.70964,1.68211 0.70964,3.62705c0,4.36297 -1.44556,12.72094 -4.33668,25.07392c4.67836,-3.83731 9.30416,-5.75596 13.87739,-5.75596c2.05007,0 3.78474,0.63079 5.20402,1.89237c1.41928,1.26158 2.12892,3.10139 2.12892,5.51942c0,4.52066 -3.70589,7.80603 -11.11768,9.8561c1.73467,5.46685 3.25908,9.17274 4.57323,11.11768c0.57822,0.84105 0.99875,1.26158 1.26158,1.26158c0.57822,0 1.78724,-0.44681 3.62705,-1.34043l0.86734,-0.39424l1.26158,2.68086c-1.26158,1.15645 -3.0094,2.32604 -5.24345,3.50877c-2.23405,1.18273 -4.27098,1.7741 -6.11078,1.7741c-4.10014,0 -6.96498,-3.73218 -8.59452,-11.19653c-0.73592,-3.20652 -1.18273,-6.20277 -1.34043,-8.98876c3.36422,-0.78849 5.87424,-1.74782 7.53006,-2.87798c1.65582,-1.13017 2.48374,-2.57573 2.48374,-4.33668c0,-1.76096 -0.89362,-2.64144 -2.68086,-2.64144c-1.78724,0 -4.78349,1.78724 -8.98876,5.36172c-2.62829,11.0914 -3.94244,18.68717 -3.94244,22.78731c-2.89112,0.84105 -6.64958,1.26158 -11.27538,1.26158c-0.05257,-0.89362 -0.07885,-1.68211 -0.07885,-2.36546c0,-2.26033 1.51127,-9.98752 4.53381,-23.18155c3.02254,-13.19403 4.53381,-22.13023 4.53381,-26.80859z" data-paper-data="{&quot;elementType&quot;:&quot;letter&quot;,&quot;baseline&quot;:73.4,&quot;baselineProportion&quot;:0.9839142091152815,&quot;fontSize&quot;:100}"></path><path d="M422.56062,273.18155c-4.36297,0 -6.54445,-2.41803 -6.54445,-7.25409c0,-1.15645 0.52566,-4.49438 1.57698,-10.0138c1.05132,-5.51942 1.57698,-10.11893 1.57698,-13.79854c0,-0.78849 -0.10513,-1.52441 -0.3154,-2.20777c2.83856,-1.10388 6.72843,-1.65582 11.66962,-1.65582c0.26283,0.73592 0.39424,1.9975 0.39424,3.78474c0,1.78724 -0.57822,5.36172 -1.73467,10.72344c-1.15645,5.36172 -1.73467,8.85735 -1.73467,10.48689c0,1.62954 0.42053,2.44431 1.26158,2.44431c2.3129,0 4.54695,-0.81477 6.70215,-2.44431c0.1577,-1.94494 1.20902,-9.8561 3.15395,-23.73349c1.83981,-0.73592 5.15146,-1.10388 9.93495,-1.10388h1.49813c-0.63079,2.4706 -1.66897,8.71279 -3.11453,18.72659c-1.44556,10.0138 -2.48374,16.36113 -3.11453,19.04199c-0.63079,2.68086 -1.48499,5.04632 -2.56259,7.09639c-1.0776,2.05007 -2.39175,3.58762 -3.94244,4.61266c-1.55069,1.02503 -3.11453,1.72153 -4.6915,2.08949c-1.57698,0.36796 -3.6139,0.55194 -6.11078,0.55194c-2.49688,0 -4.86234,-0.80163 -7.09639,-2.40489c-2.23405,-1.60326 -3.35107,-2.98311 -3.35107,-4.13956c0,-0.73592 0.93304,-1.86609 2.79913,-3.3905c1.86609,-1.52441 3.42992,-2.4706 4.6915,-2.83856c2.68086,2.68086 4.65208,5.59827 5.91366,8.75222c1.36671,0 2.57573,-1.62954 3.62705,-4.88863c1.05132,-3.25908 1.76096,-8.04258 2.12892,-14.35048c-1.26158,1.26158 -3.18024,2.56259 -5.75596,3.90302c-2.57573,1.34043 -4.86234,2.01064 -6.85985,2.01064z" data-paper-data="{&quot;elementType&quot;:&quot;letter&quot;,&quot;baseline&quot;:43.900000000000006,&quot;baselineProportion&quot;:0.6621417797888386,&quot;fontSize&quot;:100}"></path></g></g></g></g></g></svg>