<svg version="1.1" xmlns="http://www.w3.org/2000/svg" xmlns:xlink="http://www.w3.org/1999/xlink" width="500" height="500"><g data-paper-data="{&quot;description&quot;:&quot;Logo for LovWhisky\n==================\n\nThis logo was generated by MarkMaker at http://emblemmatic.org/markmaker/ and may be composed of elements designed by others.\n\nThe font is BenchNine Light designed by Vernon Adams and released under the OFL license via Google Fonts: https://www.google.com/fonts/specimen/BenchNine. The font includes this copyright statement: Copyright (c) 2012, vernon adams (vern@newtypography.co.uk), with Reserved Font Name 'BenchNine'\n\nMarkMaker uses semantic data from the Princeton University WordNet database http://wordnet.princeton.edu and font descriptions from Google Fonts https://www.google.com/fonts.&quot;}" fill="#343016" fill-rule="nonzero" stroke="none" stroke-width="1" stroke-linecap="butt" stroke-linejoin="miter" stroke-miterlimit="10" stroke-dasharray="" stroke-dashoffset="0" font-family="none" font-weight="none" font-size="none" text-anchor="none" style="mix-blend-mode: normal"><g data-paper-data="{&quot;elementType&quot;:&quot;logo&quot;}"><g data-paper-data="{&quot;elementType&quot;:&quot;text&quot;}"><g data-paper-data="{&quot;baseline&quot;:70.556640625,&quot;elementType&quot;:&quot;row&quot;}"><g data-paper-data="{&quot;baselineProportion&quot;:0.8480046948356808,&quot;fontSize&quot;:100,&quot;baseline&quot;:70.556640625,&quot;elementType&quot;:&quot;word&quot;}"><path d="M51.62343,291.85636c-0.61173,0 -1.03523,-0.19999 -1.27051,-0.59996c-0.23528,-0.39998 -0.35292,-1.30581 -0.35292,-2.71749v-94.86501c0,-1.41168 0.11764,-2.31751 0.35292,-2.71749c0.23528,-0.39998 0.65878,-0.59996 1.27051,-0.59996h4.65855c0.61173,0 1.03523,0.19999 1.27051,0.59996c0.23528,0.39998 0.35292,1.30581 0.35292,2.71749v90.41821c0,0.4235 0.04706,0.7529 0.14117,0.98818c0.09411,0.23528 0.19999,0.36468 0.31763,0.38821c0.11764,0.02353 0.2941,0.03529 0.52938,0.03529h18.77537c0.61173,0 1.047,0.10588 1.30581,0.31763c0.25881,0.21175 0.38821,0.78819 0.38821,1.72931v2.11752c0,0.65878 -0.08235,1.15287 -0.24704,1.48227c-0.1647,0.32939 -0.34116,0.52938 -0.52938,0.59996c-0.18822,0.07058 -0.49409,0.10588 -0.91759,0.10588z" data-paper-data="{&quot;elementType&quot;:&quot;letter&quot;,&quot;baseline&quot;:70.21484375,&quot;baselineProportion&quot;:1,&quot;fontSize&quot;:100}"></path><path d="M107.80836,292.70337c-2.02341,0 -3.84683,-0.23528 -5.47027,-0.70584c-1.62343,-0.47056 -3.34098,-1.45874 -5.15264,-2.96453c-1.81166,-1.50579 -3.31745,-3.54097 -4.51738,-6.10552c-1.19993,-2.56456 -2.18811,-6.11729 -2.96453,-10.6582c-0.77642,-4.54091 -1.16464,-9.87001 -1.16464,-15.98729c0,-6.2114 0.37645,-11.59932 1.12935,-16.16376c0.7529,-4.56444 1.71755,-8.11717 2.89395,-10.6582c1.1764,-2.54103 2.65867,-4.55267 4.4468,-6.03494c1.78813,-1.48227 3.50568,-2.43515 5.15264,-2.85866c1.64696,-0.4235 3.5292,-0.63526 5.64673,-0.63526c2.11752,0 3.988,0.21175 5.61143,0.63526c1.62343,0.4235 3.31745,1.37639 5.08205,2.85866c1.7646,1.48227 3.21158,3.49391 4.34092,6.03494c1.12935,2.54103 2.07047,6.09376 2.82336,10.6582c0.7529,4.56444 1.12935,9.95236 1.12935,16.16376c0,6.11729 -0.38821,11.44639 -1.16464,15.98729c-0.77642,4.54091 -1.75284,8.08188 -2.92924,10.6229c-1.1764,2.54103 -2.6469,4.5762 -4.41151,6.10552c-1.7646,1.52932 -3.45862,2.52926 -5.08205,2.99982c-1.62343,0.47056 -3.42333,0.70584 -5.39968,0.70584zM103.14981,285.57438c0,0 0.31763,0.18822 0.95289,0.56467c0.63526,0.37645 1.84695,0.56467 3.63508,0.56467c1.78813,0 3.30569,-0.36468 4.55267,-1.09405c1.24699,-0.72937 2.43515,-2.11752 3.5645,-4.16446c1.12935,-2.04694 1.97635,-5.1644 2.54103,-9.35239c0.56467,-4.18799 0.84701,-9.45827 0.84701,-15.81083c0,-5.27028 -0.21175,-9.79942 -0.63526,-13.58744c-0.4235,-3.78801 -0.96465,-6.75254 -1.62343,-8.89359c-0.65878,-2.14105 -1.52932,-3.81154 -2.61161,-5.01147c-1.08229,-1.19993 -2.11752,-1.97635 -3.1057,-2.32927c-0.98818,-0.35292 -2.16458,-0.52938 -3.5292,-0.52938c-1.36463,0 -2.55279,0.17646 -3.5645,0.52938c-1.01171,0.35292 -2.0587,1.14111 -3.14099,2.36457c-1.08229,1.22346 -1.95283,2.90571 -2.61161,5.04676c-0.65878,2.14105 -1.19993,5.09382 -1.62343,8.8583c-0.4235,3.76448 -0.63526,8.28187 -0.63526,13.55214c0,6.30551 0.28234,11.5405 0.84701,15.70496c0.56467,4.16446 1.41168,7.28192 2.54103,9.35239c1.12935,2.07047 2.32927,3.48215 3.59979,4.23504" data-paper-data="{&quot;elementType&quot;:&quot;letter&quot;,&quot;baseline&quot;:49.755859375,&quot;baselineProportion&quot;:0.988360814742968,&quot;fontSize&quot;:100}"></path><path d="M150.29998,291.78578c-0.89407,0 -1.64696,-1.55285 -2.25869,-4.65855l-11.78754,-61.6199c-0.18822,-0.79995 -0.28234,-1.62343 -0.28234,-2.47044c0,-1.45874 0.32939,-2.18811 0.98818,-2.18811h4.79972c0.94112,0 1.69402,1.52932 2.25869,4.58797l8.89359,54.77325c0.09411,0.4235 0.18822,0.63526 0.28234,0.63526c0.09411,0 0.1647,-0.21175 0.21175,-0.63526l9.10535,-54.77325c0.47056,-3.05864 1.24699,-4.58797 2.32927,-4.58797h4.51738c0.61173,0 0.91759,0.63526 0.91759,1.90577c0,0.56467 -0.11764,1.48227 -0.35292,2.75278l-12.06988,61.6199c-0.61173,3.1057 -1.45874,4.65855 -2.54103,4.65855z" data-paper-data="{&quot;elementType&quot;:&quot;letter&quot;,&quot;baseline&quot;:49.12109375,&quot;baselineProportion&quot;:1.0009950248756219,&quot;fontSize&quot;:100}"></path><path d="M194.06211,291.85636c-1.08229,-0.14117 -1.88224,-1.74107 -2.39986,-4.79972l-13.48156,-91.90048c-0.18822,-0.79995 -0.28234,-1.62343 -0.28234,-2.47044c0,-1.55285 0.35292,-2.32927 1.05876,-2.32927h4.51738c1.1764,0 2.02341,1.59991 2.54103,4.79972l10.58761,76.23081l12.77572,-75.66614c0.51762,-2.63514 1.41168,-3.95271 2.6822,-3.95271h4.72913c1.31757,0.09411 2.21163,1.43521 2.6822,4.02329l14.1874,77.78366l10.09352,-78.41892c0.4235,-3.19981 1.22346,-4.79972 2.39986,-4.79972h4.02329c0.70584,0 1.05876,0.7529 1.05876,2.25869c0,0.37645 -0.09411,1.22346 -0.28234,2.54103l-12.63455,91.90048c-0.4235,3.05864 -1.1764,4.65855 -2.25869,4.79972h-4.51738c-1.22346,-0.14117 -2.11752,-1.74107 -2.6822,-4.79972l-14.75207,-81.66578l-13.90506,81.66578c-0.51762,3.01159 -1.19993,4.61149 -2.04694,4.79972z" data-paper-data="{&quot;elementType&quot;:&quot;letter&quot;,&quot;baseline&quot;:70.21484375,&quot;baselineProportion&quot;:1,&quot;fontSize&quot;:100}"></path><path d="M263.7286,291.85636c-0.56467,0 -0.97641,-0.24704 -1.23522,-0.74113c-0.25881,-0.49409 -0.38821,-1.44697 -0.38821,-2.85866v-94.018c0,-2.58808 0.54114,-3.88212 1.62343,-3.88212h4.16446c1.12935,0 1.69402,1.29404 1.69402,3.88212v38.39774c0,0.37645 0.07058,0.56467 0.21175,0.56467c0.18822,0 0.30586,-0.09411 0.35292,-0.28234c1.45874,-4.51738 3.45862,-7.81131 5.99965,-9.88177c2.54103,-2.07047 5.15264,-3.1057 7.83483,-3.1057c3.1057,0 5.57614,0.83524 7.41133,2.50573c1.83519,1.67049 3.25863,4.7409 4.27034,9.21122c1.01171,4.47033 1.51756,10.63467 1.51756,18.49303v38.1154c0,2.39986 -0.54114,3.59979 -1.62343,3.59979h-4.23504c-0.56467,0 -0.97641,-0.24704 -1.23522,-0.74113c-0.25881,-0.49409 -0.38821,-1.44697 -0.38821,-2.85866v-40.23293c0,-7.90542 -0.52938,-13.56391 -1.58814,-16.97547c-1.05876,-3.41156 -2.92924,-5.11735 -5.61143,-5.11735c-2.11752,0 -4.18799,1.11758 -6.2114,3.35274c-2.02341,2.23516 -3.64684,5.15264 -4.8703,8.75243c-1.22346,3.59979 -1.83519,7.30545 -1.83519,11.11699v39.10358c0,1.41168 -0.1294,2.36457 -0.38821,2.85866c-0.25881,0.49409 -0.67055,0.74113 -1.23522,0.74113z" data-paper-data="{&quot;elementType&quot;:&quot;letter&quot;,&quot;baseline&quot;:70.21484375,&quot;baselineProportion&quot;:1,&quot;fontSize&quot;:100}"></path><path d="M312.57279,291.85636c-0.56467,0 -0.97641,-0.25881 -1.23522,-0.77642c-0.25881,-0.51762 -0.38821,-1.50579 -0.38821,-2.96453v-63.52567c0,-1.45874 0.1294,-2.44691 0.38821,-2.96453c0.25881,-0.51762 0.67055,-0.77642 1.23522,-0.77642h4.23504c0.56467,0 0.97641,0.25881 1.23522,0.77642c0.25881,0.51762 0.38821,1.50579 0.38821,2.96453v63.52567c0,1.45874 -0.1294,2.44691 -0.38821,2.96453c-0.25881,0.51762 -0.67055,0.77642 -1.23522,0.77642zM312.00812,208.99065c-0.56467,0 -0.97641,-0.22352 -1.23522,-0.67055c-0.25881,-0.44703 -0.38821,-1.37639 -0.38821,-2.78807v-5.08205c0,-1.41168 0.1294,-2.34104 0.38821,-2.78807c0.25881,-0.44703 0.67055,-0.67055 1.23522,-0.67055h5.36439c0.56467,0 0.97641,0.22352 1.23522,0.67055c0.25881,0.44703 0.38821,1.37639 0.38821,2.78807v5.08205c0,1.41168 -0.1294,2.34104 -0.38821,2.78807c-0.25881,0.44703 -0.67055,0.67055 -1.23522,0.67055h-5.36439" data-paper-data="{&quot;elementType&quot;:&quot;letter&quot;,&quot;baseline&quot;:65.625,&quot;baselineProportion&quot;:1,&quot;fontSize&quot;:100}"></path><path d="M361.62873,274.06917c0,5.55261 -1.50579,10.04647 -4.51738,13.48156c-3.01159,3.43509 -7.15252,5.15264 -12.4228,5.15264c-6.30551,0 -11.74049,-2.6822 -16.30492,-8.04659c-0.28234,-0.37645 -0.4235,-0.7529 -0.4235,-1.12935c0,-0.84701 0.4235,-1.72931 1.27051,-2.6469c0.84701,-0.91759 1.57638,-1.37639 2.18811,-1.37639c0.18822,0 0.35292,0.07058 0.49409,0.21175c2.16458,2.44691 4.18799,4.22328 6.07023,5.3291c1.88224,1.10582 4.09388,1.65873 6.6349,1.65873c3.29392,0 5.84671,-1.22346 7.65837,-3.67037c1.81166,-2.44691 2.71749,-5.4585 2.71749,-9.03476c0,-3.5292 -0.85877,-6.3761 -2.57632,-8.54067c-1.71755,-2.16458 -4.34092,-4.37621 -7.87013,-6.6349c-2.21163,-1.41168 -3.97624,-2.63514 -5.29381,-3.67037c-1.31757,-1.03523 -2.70572,-2.39986 -4.16446,-4.09388c-1.45874,-1.69402 -2.52926,-3.63508 -3.21158,-5.82319c-0.68231,-2.18811 -1.02347,-4.69384 -1.02347,-7.5172c0,-5.22322 1.38815,-9.49356 4.16446,-12.81101c2.77631,-3.31745 6.39962,-4.97618 10.86995,-4.97618c5.17617,0 9.71708,1.99988 13.62273,5.99965c0.23528,0.23528 0.35292,0.54114 0.35292,0.91759c0,0.79995 -0.36468,1.67049 -1.09405,2.61161c-0.72937,0.94112 -1.37639,1.41168 -1.94106,1.41168c-0.18822,0 -0.32939,-0.04706 -0.4235,-0.14117c-1.74107,-1.59991 -3.35274,-2.77631 -4.83501,-3.5292c-1.48227,-0.7529 -3.2351,-1.12935 -5.25851,-1.12935c-2.77631,0 -4.94089,1.09405 -6.49374,3.28216c-1.55285,2.18811 -2.32927,4.83501 -2.32927,7.94071c0,3.38804 0.72937,6.15258 2.18811,8.29363c1.45874,2.14105 3.81154,4.19975 7.05841,6.17611c2.30575,1.36463 4.19975,2.63514 5.68202,3.81154c1.48227,1.1764 2.99982,2.6469 4.55267,4.41151c1.55285,1.7646 2.71749,3.8233 3.49391,6.17611c0.77642,2.3528 1.16464,4.98794 1.16464,7.90542z" data-paper-data="{&quot;elementType&quot;:&quot;letter&quot;,&quot;baseline&quot;:49.755859375,&quot;baselineProportion&quot;:0.988360814742968,&quot;fontSize&quot;:100}"></path><path d="M373.48685,291.85636c-1.08229,0 -1.62343,-1.52932 -1.62343,-4.58797v-92.81807c0,-3.05864 0.54114,-4.58797 1.62343,-4.58797h4.16446c1.12935,0 1.69402,1.52932 1.69402,4.58797v63.45509c0,0.51762 0.09411,0.77642 0.28234,0.77642l0.21175,-0.21175l18.77537,-33.17452c0.56467,-0.89407 0.95289,-1.49403 1.16464,-1.79989c0.21175,-0.30586 0.50585,-0.72937 0.8823,-1.27051c0.37645,-0.54114 0.70584,-0.90583 0.98818,-1.09405c0.28234,-0.18822 0.54114,-0.28234 0.77642,-0.28234h4.79972c0.47056,0 0.70584,0.44703 0.70584,1.3411c0,0.94112 -0.32939,1.97635 -0.98818,3.1057l-15.10499,26.53962c-0.18822,0.37645 -0.28234,0.65878 -0.28234,0.84701c0,0.14117 0.04706,0.2941 0.14117,0.4588c0.09411,0.1647 0.14117,0.27057 0.14117,0.31763l16.23434,33.88036c0.47056,0.94112 0.70584,1.88224 0.70584,2.82336c0,1.12935 -0.28234,1.69402 -0.84701,1.69402h-4.94089c-0.79995,0 -1.78813,-1.43521 -2.96453,-4.30563l-13.19922,-29.50415c-0.09411,-0.37645 -0.25881,-0.56467 -0.49409,-0.56467c-0.09411,0 -0.23528,0.11764 -0.4235,0.35292c-0.4235,0.65878 -1.15287,1.87048 -2.18811,3.63508c-1.03523,1.7646 -1.95283,3.36451 -2.75278,4.79972c-0.79995,1.43521 -1.22346,2.15281 -1.27051,2.15281c-0.23528,0.56467 -0.35292,1.27051 -0.35292,2.11752v16.72843c0,3.05864 -0.56467,4.58797 -1.69402,4.58797z" data-paper-data="{&quot;elementType&quot;:&quot;letter&quot;,&quot;baseline&quot;:70.556640625,&quot;baselineProportion&quot;:1,&quot;fontSize&quot;:100}"></path><path d="M418.87242,305.90259c0,-0.79995 0.09411,-1.4705 0.28234,-2.01165c0.18822,-0.54114 0.39998,-0.91759 0.63526,-1.12935c0.23528,-0.21175 0.44703,-0.2941 0.63526,-0.24704c2.49397,0.7529 4.21152,1.12935 5.15264,1.12935c1.31757,0 2.38809,-1.27051 3.21158,-3.81154c0.82348,-2.54103 1.23522,-5.38792 1.23522,-8.54067c0,-1.36463 -0.44703,-3.92918 -1.3411,-7.69367l-13.90506,-58.58479c-0.09411,-0.65878 -0.14117,-1.1764 -0.14117,-1.55285c0,-1.74107 0.37645,-2.61161 1.12935,-2.61161h4.23504c1.1764,0 1.99988,1.24699 2.47044,3.74096l10.94053,52.65573c0.14117,0.47056 0.25881,0.70584 0.35292,0.70584c0.09411,0 0.18822,-0.25881 0.28234,-0.77642l8.47009,-52.37339c0.4235,-2.63514 1.15287,-3.95271 2.18811,-3.95271h4.09388c0.79995,0 1.19993,0.96465 1.19993,2.89395c0,0.04706 -0.07058,0.56467 -0.21175,1.55285l-12.63455,65.78437c-1.36463,7.57602 -2.74102,12.64631 -4.12917,15.21087c-1.38815,2.56456 -3.77625,3.84683 -7.16428,3.84683c-4.65855,0 -6.98782,-1.41168 -6.98782,-4.23504z" data-paper-data="{&quot;elementType&quot;:&quot;letter&quot;,&quot;baseline&quot;:49.12109375,&quot;baselineProportion&quot;:0.7952569169960474,&quot;fontSize&quot;:100}"></path></g></g></g></g></g></svg>